<?xml version="1.0"?>
<svg xmlns="http://www.w3.org/2000/svg" xmlns:xlink="http://www.w3.org/1999/xlink" width="512" height="512" viewBox="0 0 512 512"><defs><linearGradient id="a" data-name="New Gradient Swatch 1" x1="103.492" y1="604.508" x2="601.509" y2="106.491" gradientUnits="userSpaceOnUse"><stop offset="0" stop-color="#003f8a"/><stop offset="0.518" stop-color="#00d7df"/><stop offset="1" stop-color="#006df0"/></linearGradient><linearGradient id="b" x1="-75.335" y1="425.681" x2="422.682" y2="-72.337" xlink:href="#a"/><linearGradient id="c" x1="-19.335" y1="481.681" x2="478.682" y2="-16.337" xlink:href="#a"/></defs><g><path d="M496,472H484.71L369.04,263.8l14.12-28.22a8.005,8.005,0,0,0-14.32-7.16L360,246.11l-8.84-17.69a8.005,8.005,0,0,0-14.32,7.16l14.12,28.22L235.29,472H215.98a39.984,39.984,0,0,0-36.47-69.99L168,381.87V376h8a8,8,0,0,0,8-8V344a8,8,0,0,0-8-8H152a8,8,0,0,0,0,16h16v8h-8a8,8,0,0,0-8,8v8H104v-8a8,8,0,0,0,0-16H80a8,8,0,0,0,0,16h8v13.88L76.49,402.01A39.987,39.987,0,0,0,40.02,472H16a8,8,0,0,0,0,16H496a8,8,0,0,0,0-16ZM146.21,392,128,423.88,109.79,392ZM96,400.12,114.21,432H103.2a40.036,40.036,0,0,0-12.82-22.03ZM64,464a24,24,0,1,1,4.28-47.61L57.05,436.03A8,8,0,0,0,64,448H86.62A24.031,24.031,0,0,1,64,464Zm13.79-32,4.37-7.66A23.788,23.788,0,0,1,86.62,432Zm10.18,40a40.048,40.048,0,0,0,15.23-24H128a8.019,8.019,0,0,0,6.95-4.03L160,400.12l5.62,9.85a39.944,39.944,0,0,0,2.4,62.03ZM192,464a23.977,23.977,0,0,1-18.16-39.66l11.21,19.63a8,8,0,0,0,13.9-7.94l-11.23-19.64A24,24,0,1,1,192,464Zm139.35,8L360,391.79,388.65,472Zm58.47-44.3,29.85,21.32L403.28,465.4ZM419.31,472l18.35-18.34a8.012,8.012,0,0,0-1.01-12.17l-56-40c-.08-.06-.17-.11-.25-.16l-12.87-36.02a7.994,7.994,0,0,0-15.06,0L314.36,472H253.6L360,280.47,466.4,472Z" fill="url(#a)"/><path d="M88,256H200a40,40,0,0,0,0-80q-1.156,0-2.313.067A56.32,56.32,0,0,0,144,136a55.722,55.722,0,0,0-46.588,24.932A48,48,0,1,0,88,256Zm0-80a31.9,31.9,0,0,1,10.575,1.8,8,8,0,0,0,9.775-3.921,39.994,39.994,0,0,1,75.241,12.405,8,8,0,0,0,10.034,6.581A24,24,0,1,1,200,240H88a32,32,0,0,1,0-64Z" fill="url(#b)"/><path d="M312,144H424a40,40,0,0,0,0-80q-1.157,0-2.313.067A56.32,56.32,0,0,0,368,24a55.722,55.722,0,0,0-46.588,24.932A48,48,0,1,0,312,144Zm0-80a31.9,31.9,0,0,1,10.575,1.8,8,8,0,0,0,9.775-3.921,39.994,39.994,0,0,1,75.241,12.405,8,8,0,0,0,10.034,6.581A24,24,0,1,1,424,128H312a32,32,0,0,1,0-64Z" fill="url(#c)"/></g></svg>
